<svg width="24" height="24" viewBox="0 0 48 48" fill="none" xmlns="http://www.w3.org/2000/svg">
<path fill-rule="evenodd" clip-rule="evenodd" d="M7.19995 12.0001C7.19995 11.3636 7.45281 10.7531 7.90289 10.303C8.35298 9.85295 8.96343 9.6001 9.59995 9.6001H38.4C39.0365 9.6001 39.6469 9.85295 40.097 10.303C40.5471 10.7531 40.7999 11.3636 40.7999 12.0001C40.7999 12.6366 40.5471 13.2471 40.097 13.6972C39.6469 14.1472 39.0365 14.4001 38.4 14.4001H9.59995C8.96343 14.4001 8.35298 14.1472 7.90289 13.6972C7.45281 13.2471 7.19995 12.6366 7.19995 12.0001ZM7.19995 24.0001C7.19995 23.3636 7.45281 22.7531 7.90289 22.303C8.35298 21.853 8.96343 21.6001 9.59995 21.6001H38.4C39.0365 21.6001 39.6469 21.853 40.097 22.303C40.5471 22.7531 40.7999 23.3636 40.7999 24.0001C40.7999 24.6366 40.5471 25.2471 40.097 25.6972C39.6469 26.1472 39.0365 26.4001 38.4 26.4001H9.59995C8.96343 26.4001 8.35298 26.1472 7.90289 25.6972C7.45281 25.2471 7.19995 24.6366 7.19995 24.0001ZM7.19995 36.0001C7.19995 35.3636 7.45281 34.7531 7.90289 34.303C8.35298 33.853 8.96343 33.6001 9.59995 33.6001H38.4C39.0365 33.6001 39.6469 33.853 40.097 34.303C40.5471 34.7531 40.7999 35.3636 40.7999 36.0001C40.7999 36.6366 40.5471 37.2471 40.097 37.6972C39.6469 38.1472 39.0365 38.4001 38.4 38.4001H9.59995C8.96343 38.4001 8.35298 38.1472 7.90289 37.6972C7.45281 37.2471 7.19995 36.6366 7.19995 36.0001Z" fill="black"/>
</svg>
