<svg width="18" height="18" viewBox="0 0 18 18" fill="none" xmlns="http://www.w3.org/2000/svg">
<path d="M1 1.00188V6.00188H1.582M1.582 6.00188C2.24585 4.36001 3.43568 2.98479 4.96503 2.09174C6.49438 1.19869 8.2768 0.838294 10.033 1.06702C11.7891 1.29575 13.4198 2.10068 14.6694 3.35566C15.919 4.61064 16.7168 6.24474 16.938 8.00188M1.582 6.00188H6M17 17.0019V12.0019H16.419M16.419 12.0019C15.7542 13.6428 14.564 15.0169 13.0348 15.9092C11.5056 16.8014 9.72374 17.1614 7.9681 16.9328C6.21246 16.7041 4.5822 15.8998 3.33253 14.6456C2.08287 13.3915 1.28435 11.7583 1.062 10.0019M16.419 12.0019H12" stroke="#002968" stroke-width="2" stroke-linecap="round" stroke-linejoin="round"/>
</svg>
