<svg width="39" height="39" viewBox="0 0 39 39" fill="none" xmlns="http://www.w3.org/2000/svg">
<path d="M16.1873 23.015L36.6012 2.60107M16.1873 23.015L22.6826 36.0056C22.7641 36.1833 22.8948 36.3338 23.0593 36.4394C23.2238 36.545 23.4151 36.6011 23.6105 36.6011C23.806 36.6011 23.9973 36.545 24.1618 36.4394C24.3263 36.3338 24.457 36.1833 24.5385 36.0056L36.6012 2.60107M16.1873 23.015L3.19667 16.5196C3.01899 16.4382 2.86843 16.3075 2.76287 16.143C2.65731 15.9785 2.6012 15.7872 2.6012 15.5917C2.6012 15.3963 2.65731 15.2049 2.76287 15.0405C2.86843 14.876 3.01899 14.7452 3.19667 14.6638L36.6012 2.60107" stroke="black" stroke-width="4.06588" stroke-linecap="round" stroke-linejoin="round"/>
</svg>
