<svg width="30" height="30" viewBox="0 0 30 30" fill="none" xmlns="http://www.w3.org/2000/svg">
<path d="M12.1666 17.8333L27.7499 2.25M12.1666 17.8333L17.1249 27.75C17.1871 27.8856 17.2869 28.0006 17.4124 28.0811C17.538 28.1617 17.6841 28.2046 17.8332 28.2046C17.9824 28.2046 18.1285 28.1617 18.2541 28.0811C18.3796 28.0006 18.4794 27.8856 18.5416 27.75L27.7499 2.25M12.1666 17.8333L2.24992 12.875C2.11428 12.8128 1.99935 12.7131 1.91877 12.5875C1.83818 12.4619 1.79535 12.3159 1.79535 12.1667C1.79535 12.0175 1.83818 11.8714 1.91877 11.7458C1.99935 11.6203 2.11428 11.5205 2.24992 11.4583L27.7499 2.25" stroke="black" stroke-opacity="0.4" stroke-width="2.83333" stroke-linecap="round" stroke-linejoin="round"/>
</svg>
