<svg width="20" height="20" viewBox="0 0 20 20" fill="none" xmlns="http://www.w3.org/2000/svg">
<path fill-rule="evenodd" clip-rule="evenodd" d="M4.29306 4.29259C4.48059 4.10512 4.7349 3.99981 5.00006 3.99981C5.26523 3.99981 5.51953 4.10512 5.70706 4.29259L10.0001 8.58559L14.2931 4.29259C14.3853 4.19708 14.4957 4.1209 14.6177 4.06849C14.7397 4.01608 14.8709 3.9885 15.0037 3.98734C15.1364 3.98619 15.2681 4.01149 15.391 4.06177C15.5139 4.11205 15.6256 4.18631 15.7195 4.2802C15.8133 4.37409 15.8876 4.48574 15.9379 4.60864C15.9882 4.73154 16.0135 4.86321 16.0123 4.99599C16.0112 5.12877 15.9836 5.25999 15.9312 5.382C15.8788 5.504 15.8026 5.61435 15.7071 5.70659L11.4141 9.99959L15.7071 14.2926C15.8892 14.4812 15.99 14.7338 15.9877 14.996C15.9855 15.2582 15.8803 15.509 15.6949 15.6944C15.5095 15.8798 15.2587 15.985 14.9965 15.9873C14.7343 15.9895 14.4817 15.8888 14.2931 15.7066L10.0001 11.4136L5.70706 15.7066C5.51846 15.8888 5.26586 15.9895 5.00366 15.9873C4.74146 15.985 4.49065 15.8798 4.30524 15.6944C4.11983 15.509 4.01467 15.2582 4.01239 14.996C4.01011 14.7338 4.1109 14.4812 4.29306 14.2926L8.58606 9.99959L4.29306 5.70659C4.10559 5.51907 4.00027 5.26476 4.00027 4.99959C4.00027 4.73443 4.10559 4.48012 4.29306 4.29259Z" fill="#B5B5B5"/>
</svg>
